<?xml version="1.0" encoding="utf-8"?>
<!-- Generator: Adobe Illustrator 21.1.0, SVG Export Plug-In . SVG Version: 6.00 Build 0)  -->
<svg version="1.0" id="Layer_1" xmlns="http://www.w3.org/2000/svg" xmlns:xlink="http://www.w3.org/1999/xlink" x="0px" y="0px"
	 viewBox="0 0 30 30" style="enable-background:new 0 0 30 30;" xml:space="preserve">
<g>
	<path style="fill:#00A201;" d="M1.6,0.7c1.3-0.1,2.4-0.1,3.5,0C6.2,0.8,7.2,1,8.2,1.2c1.9,0.4,3.7,1,5.3,1.7
		c3.2,1.4,5.9,3.4,8.1,5.7c2.2,2.4,4.1,5.1,5.4,8.4c0.6,1.6,1.1,3.4,1.4,5.4c0.1,1,0.3,2,0.3,3.1c0.1,1.1,0,2.2-0.1,3.5
		c-1.3,0.1-2.4,0.1-3.5,0C24,28.9,23,28.7,22,28.5c-1.9-0.4-3.7-1-5.3-1.7c-3.2-1.4-5.9-3.4-8.1-5.7c-2.2-2.4-4.1-5.1-5.3-8.4
		C2.6,11,2.2,9.2,1.8,7.3c-0.1-1-0.3-2-0.3-3.1C1.5,3.1,1.5,2,1.6,0.7z"/>
</g>
<g>
	<path style="fill:#007700;" d="M28.6,29c-2.4-2.2-4.7-4.6-6.9-6.9c-2.3-2.3-4.5-4.7-6.8-7c-2.2-2.4-4.5-4.7-6.7-7.1
		C6,5.6,3.8,3.2,1.6,0.7C4,3,6.3,5.3,8.6,7.6c2.3,2.3,4.5,4.7,6.8,7c2.2,2.4,4.5,4.7,6.7,7.1C24.3,24.1,26.5,26.5,28.6,29z"/>
</g>
<g>
	<path style="fill:#007700;" d="M19.8,20c-0.4-2.2-0.4-4.3-0.4-6.5c0-2.2,0.2-4.3,0.6-6.5c0.4,2.2,0.4,4.3,0.4,6.5
		C20.3,15.6,20.2,17.8,19.8,20z"/>
</g>
<g>
	<path style="fill:#007700;" d="M6.9,19c2.2-0.2,4.3-0.2,6.5,0c2.1,0.2,4.3,0.4,6.4,1c-2.2,0.2-4.3,0.2-6.5,0
		C11.2,19.8,9.1,19.6,6.9,19z"/>
</g>
<g>
	<path style="fill:#007700;" d="M16.1,16.2c-0.6-2-1-4.1-1.2-6.2c-0.2-2.1-0.4-4.2-0.2-6.3c0.6,2,1,4.1,1.2,6.2
		C16.1,11.9,16.3,14,16.1,16.2z"/>
</g>
<g>
	<path style="fill:#007700;" d="M4.2,14.7c2-0.2,4-0.1,5.9,0.1c2,0.2,3.9,0.5,5.8,1.1c-2,0.2-4,0.1-5.9-0.1
		C8.1,15.6,6.1,15.3,4.2,14.7z"/>
</g>
<g>
	<path style="fill:#007700;" d="M12.2,11.8C11.6,10.2,11.3,8.6,11,7c-0.2-1.6-0.3-3.3-0.2-4.9c0.6,1.6,0.9,3.2,1.1,4.8
		C12.2,8.5,12.3,10.1,12.2,11.8z"/>
</g>
<g>
	<path style="fill:#007700;" d="M2.7,10.7c1.6-0.2,3.1-0.1,4.6,0c1.5,0.2,3,0.4,4.5,1c-1.6,0.2-3.1,0.1-4.6,0
		C5.7,11.5,4.2,11.3,2.7,10.7z"/>
</g>
<g>
	<path style="fill:#007700;" d="M1.8,6c1-0.2,1.9-0.1,2.9,0c0.9,0.2,1.8,0.4,2.7,1c-1,0.2-1.9,0.2-2.9,0C3.6,6.8,2.6,6.5,1.8,6z"/>
</g>
<g>
	<path style="fill:#007700;" d="M7.7,6.8C7.2,5.9,7,5,6.8,4C6.7,3,6.7,2,6.9,1c0.5,0.9,0.7,1.9,0.9,2.8C7.9,4.8,8,5.8,7.7,6.8z"/>
</g>
<g>
	<path style="fill:#007700;" d="M24.1,24.3c-0.5-2.2-0.6-4.4-0.7-6.5c-0.1-2.2,0-4.4,0.3-6.6c0.5,2.2,0.6,4.4,0.7,6.5
		C24.5,19.9,24.5,22.1,24.1,24.3z"/>
</g>
<g>
	<path style="fill:#007700;" d="M11,23.2c2.2-0.2,4.3-0.2,6.5,0c2.2,0.2,4.3,0.4,6.4,1c-2.2,0.2-4.3,0.2-6.5,0
		C15.3,24.1,13.1,23.8,11,23.2z"/>
</g>
<g>
	<path style="fill:#007700;" d="M26.7,26.9c-0.2-1.5-0.2-3.1-0.1-4.6c0.1-1.5,0.3-3.1,0.7-4.6c0.2,1.5,0.2,3.1,0.1,4.6
		C27.2,23.9,27,25.4,26.7,26.9z"/>
</g>
<g>
	<path style="fill:#007700;" d="M17.2,26.9c1.6-0.3,3.2-0.4,4.7-0.4c1.6,0,3.2,0.1,4.7,0.4c-1.6,0.3-3.2,0.4-4.7,0.4
		C20.3,27.3,18.7,27.2,17.2,26.9z"/>
</g>
</svg>
